<mxfile host="Electron" modified="2024-05-29T18:56:25.326Z" agent="Mozilla/5.0 (Windows NT 10.0; Win64; x64) AppleWebKit/537.36 (KHTML, like Gecko) draw.io/24.4.0 Chrome/120.0.6099.109 Electron/28.1.0 Safari/537.36" etag="JtTiZ1kg7RzTVcDzQdyf" version="24.4.0" type="device">
  <diagram name="Page-1" id="bu61OYsvoguROMBlXTo7">
    <mxGraphModel dx="430" dy="82" grid="1" gridSize="10" guides="1" tooltips="1" connect="1" arrows="1" fold="1" page="0" pageScale="1" pageWidth="1100" pageHeight="850" math="0" shadow="0">
      <root>
        <mxCell id="0" />
        <mxCell id="1" parent="0" />
        <mxCell id="NcZzDJtGZ6VRvpySM8Dh-1" value="&lt;b&gt;&lt;font style=&quot;font-size: 14px;&quot;&gt;&lt;i style=&quot;&quot;&gt;&lt;font color=&quot;#c792ea&quot;&gt;class&lt;/font&gt;&lt;/i&gt; &lt;font color=&quot;#ffcb6b&quot;&gt;Grade&lt;/font&gt;&lt;/font&gt;&lt;/b&gt;" style="swimlane;fontStyle=0;childLayout=stackLayout;horizontal=1;startSize=40;horizontalStack=0;resizeParent=1;resizeParentMax=0;resizeLast=0;collapsible=1;marginBottom=0;whiteSpace=wrap;html=1;swimlaneLine=1;rounded=1;shadow=0;glass=0;fillColor=#000000;movable=1;resizable=1;rotatable=1;deletable=1;editable=1;locked=0;connectable=1;" vertex="1" parent="1">
          <mxGeometry x="410" y="400" width="270" height="220" as="geometry">
            <mxRectangle x="140" y="110" width="120" height="30" as="alternateBounds" />
          </mxGeometry>
        </mxCell>
        <mxCell id="NcZzDJtGZ6VRvpySM8Dh-2" value="&lt;span style=&quot;font-size: 14px;&quot;&gt;&lt;b style=&quot;&quot;&gt;&lt;i style=&quot;&quot;&gt;[ Attributes ]&lt;/i&gt;&lt;/b&gt;&lt;/span&gt;" style="swimlane;fontStyle=0;childLayout=stackLayout;horizontal=1;startSize=30;horizontalStack=0;resizeParent=1;resizeParentMax=0;resizeLast=0;collapsible=1;marginBottom=0;whiteSpace=wrap;html=1;swimlaneLine=1;rounded=1;shadow=0;glass=0;fillColor=#000000;" vertex="1" parent="NcZzDJtGZ6VRvpySM8Dh-1">
          <mxGeometry y="40" width="270" height="90" as="geometry">
            <mxRectangle x="140" y="110" width="120" height="30" as="alternateBounds" />
          </mxGeometry>
        </mxCell>
        <mxCell id="NcZzDJtGZ6VRvpySM8Dh-3" value="&lt;b&gt;&lt;font color=&quot;#ffffff&quot;&gt;(&lt;/font&gt;&lt;/b&gt;&lt;font color=&quot;#3399ff&quot;&gt;&lt;b&gt;MODIFIER&lt;/b&gt;&lt;/font&gt;&lt;b&gt;&lt;font color=&quot;#ffffff&quot;&gt;)&lt;/font&gt;&lt;/b&gt; &lt;font color=&quot;#ffffff&quot;&gt;NAME:&lt;/font&gt; &lt;i style=&quot;&quot;&gt;&lt;font color=&quot;#ffcb6b&quot;&gt;TYPE&lt;/font&gt;&lt;/i&gt;" style="text;strokeColor=#FFFFFF;fillColor=#1A1A1A;align=left;verticalAlign=middle;spacingLeft=4;spacingRight=4;overflow=hidden;points=[[0,0.5],[1,0.5]];portConstraint=eastwest;rotatable=0;whiteSpace=wrap;html=1;fontColor=#333333;" vertex="1" parent="NcZzDJtGZ6VRvpySM8Dh-2">
          <mxGeometry y="30" width="270" height="30" as="geometry" />
        </mxCell>
        <mxCell id="NcZzDJtGZ6VRvpySM8Dh-4" value="&lt;b&gt;&lt;font color=&quot;#ffffff&quot;&gt;(&lt;/font&gt;&lt;/b&gt;&lt;font color=&quot;#3399ff&quot;&gt;&lt;b&gt;MODIFIER&lt;/b&gt;&lt;/font&gt;&lt;b&gt;&lt;font color=&quot;#ffffff&quot;&gt;)&lt;/font&gt;&lt;/b&gt; &lt;font color=&quot;#ffffff&quot;&gt;NAME:&lt;/font&gt; &lt;i style=&quot;&quot;&gt;&lt;font color=&quot;#ffcb6b&quot;&gt;TYPE&lt;/font&gt;&lt;/i&gt;" style="text;strokeColor=#FFFFFF;fillColor=#1A1A1A;align=left;verticalAlign=middle;spacingLeft=4;spacingRight=4;overflow=hidden;points=[[0,0.5],[1,0.5]];portConstraint=eastwest;rotatable=0;whiteSpace=wrap;html=1;fontColor=#333333;" vertex="1" parent="NcZzDJtGZ6VRvpySM8Dh-2">
          <mxGeometry y="60" width="270" height="30" as="geometry" />
        </mxCell>
        <mxCell id="NcZzDJtGZ6VRvpySM8Dh-5" value="&lt;span style=&quot;font-size: 14px;&quot;&gt;&lt;b style=&quot;&quot;&gt;&lt;i style=&quot;&quot;&gt;[ Methods ]&lt;/i&gt;&lt;/b&gt;&lt;/span&gt;" style="swimlane;fontStyle=0;childLayout=stackLayout;horizontal=1;startSize=30;horizontalStack=0;resizeParent=1;resizeParentMax=0;resizeLast=0;collapsible=1;marginBottom=0;whiteSpace=wrap;html=1;swimlaneLine=1;rounded=1;shadow=0;glass=0;fillColor=#000000;" vertex="1" parent="NcZzDJtGZ6VRvpySM8Dh-1">
          <mxGeometry y="130" width="270" height="90" as="geometry">
            <mxRectangle x="140" y="110" width="120" height="30" as="alternateBounds" />
          </mxGeometry>
        </mxCell>
        <mxCell id="NcZzDJtGZ6VRvpySM8Dh-6" value="&lt;b&gt;&lt;font color=&quot;#ffffff&quot;&gt;(&lt;/font&gt;&lt;/b&gt;&lt;font color=&quot;#3399ff&quot;&gt;&lt;b&gt;MODIFIER&lt;/b&gt;&lt;/font&gt;&lt;b&gt;&lt;font color=&quot;#ffffff&quot;&gt;)&lt;/font&gt;&lt;/b&gt; &lt;font color=&quot;#ffffff&quot;&gt;NAME&lt;/font&gt;&lt;font color=&quot;#ffcb6b&quot;&gt;()&lt;/font&gt;&lt;font color=&quot;#ffffff&quot;&gt;:&lt;/font&gt; &lt;font color=&quot;#c792ea&quot;&gt;return&lt;/font&gt; &lt;b&gt;&lt;font color=&quot;#ffffff&quot;&gt;--&amp;gt;&lt;/font&gt;&lt;/b&gt;&amp;nbsp;&lt;i style=&quot;&quot;&gt;&lt;font color=&quot;#ffcb6b&quot;&gt;TYPE&lt;/font&gt;&lt;/i&gt;" style="text;strokeColor=#FFFFFF;fillColor=#1A1A1A;align=left;verticalAlign=middle;spacingLeft=4;spacingRight=4;overflow=hidden;points=[[0,0.5],[1,0.5]];portConstraint=eastwest;rotatable=0;whiteSpace=wrap;html=1;fontColor=#333333;" vertex="1" parent="NcZzDJtGZ6VRvpySM8Dh-5">
          <mxGeometry y="30" width="270" height="30" as="geometry" />
        </mxCell>
        <mxCell id="NcZzDJtGZ6VRvpySM8Dh-7" value="&lt;b&gt;&lt;font color=&quot;#ffffff&quot;&gt;(&lt;/font&gt;&lt;/b&gt;&lt;font color=&quot;#3399ff&quot;&gt;&lt;b&gt;MODIFIER&lt;/b&gt;&lt;/font&gt;&lt;b&gt;&lt;font color=&quot;#ffffff&quot;&gt;)&lt;/font&gt;&lt;/b&gt; &lt;font color=&quot;#ffffff&quot;&gt;NAME&lt;/font&gt;&lt;font color=&quot;#ffcb6b&quot;&gt;()&lt;/font&gt;&lt;font color=&quot;#ffffff&quot;&gt;:&lt;/font&gt; &lt;font color=&quot;#c792ea&quot;&gt;return&lt;/font&gt; &lt;b&gt;&lt;font color=&quot;#ffffff&quot;&gt;--&amp;gt;&lt;/font&gt;&lt;/b&gt;&amp;nbsp;&lt;i style=&quot;&quot;&gt;&lt;font color=&quot;#ffcb6b&quot;&gt;TYPE&lt;/font&gt;&lt;/i&gt;" style="text;strokeColor=#FFFFFF;fillColor=#1A1A1A;align=left;verticalAlign=middle;spacingLeft=4;spacingRight=4;overflow=hidden;points=[[0,0.5],[1,0.5]];portConstraint=eastwest;rotatable=0;whiteSpace=wrap;html=1;fontColor=#333333;" vertex="1" parent="NcZzDJtGZ6VRvpySM8Dh-5">
          <mxGeometry y="60" width="270" height="30" as="geometry" />
        </mxCell>
      </root>
    </mxGraphModel>
  </diagram>
</mxfile>
